<svg width="154" height="28" viewBox="0 0 154 28" fill="none" xmlns="http://www.w3.org/2000/svg">
<path d="M24.4152 27H19.5912C19.2552 27 18.9852 26.916 18.7812 26.748C18.5892 26.58 18.4332 26.388 18.3132 26.172L12.2832 16.182C12.1872 16.482 12.0732 16.74 11.9412 16.956L6.16319 26.172C6.01919 26.376 5.85119 26.568 5.65919 26.748C5.47919 26.916 5.23919 27 4.93919 27H0.421188L9.06119 13.608L0.763188 0.971998H5.58719C5.92319 0.971998 6.16319 1.02 6.30719 1.116C6.46319 1.2 6.60719 1.344 6.73919 1.548L12.6612 11.088C12.7812 10.788 12.9252 10.488 13.0932 10.188L18.5292 1.638C18.6612 1.41 18.8052 1.242 18.9612 1.134C19.1172 1.026 19.3152 0.971998 19.5552 0.971998H24.1812L15.8112 13.41L24.4152 27ZM51.2552 13.986C51.2552 15.894 50.9372 17.664 50.3012 19.296C49.6772 20.916 48.7892 22.32 47.6372 23.508C46.4852 24.696 45.0992 25.626 43.4792 26.298C41.8592 26.958 40.0592 27.288 38.0792 27.288C36.1112 27.288 34.3172 26.958 32.6972 26.298C31.0772 25.626 29.6852 24.696 28.5212 23.508C27.3692 22.32 26.4752 20.916 25.8392 19.296C25.2032 17.664 24.8852 15.894 24.8852 13.986C24.8852 12.078 25.2032 10.314 25.8392 8.694C26.4752 7.062 27.3692 5.652 28.5212 4.464C29.6852 3.276 31.0772 2.352 32.6972 1.692C34.3172 1.02 36.1112 0.684 38.0792 0.684C39.3992 0.684 40.6412 0.839999 41.8052 1.152C42.9692 1.452 44.0372 1.884 45.0092 2.448C45.9812 3 46.8512 3.678 47.6192 4.482C48.3992 5.274 49.0592 6.162 49.5992 7.146C50.1392 8.13 50.5472 9.198 50.8232 10.35C51.1112 11.502 51.2552 12.714 51.2552 13.986ZM46.3052 13.986C46.3052 12.558 46.1132 11.28 45.7292 10.152C45.3452 9.012 44.7992 8.046 44.0912 7.254C43.3832 6.462 42.5192 5.856 41.4992 5.436C40.4912 5.016 39.3512 4.806 38.0792 4.806C36.8072 4.806 35.6612 5.016 34.6412 5.436C33.6332 5.856 32.7692 6.462 32.0492 7.254C31.3412 8.046 30.7952 9.012 30.4112 10.152C30.0272 11.28 29.8352 12.558 29.8352 13.986C29.8352 15.414 30.0272 16.698 30.4112 17.838C30.7952 18.966 31.3412 19.926 32.0492 20.718C32.7692 21.498 33.6332 22.098 34.6412 22.518C35.6612 22.938 36.8072 23.148 38.0792 23.148C39.3512 23.148 40.4912 22.938 41.4992 22.518C42.5192 22.098 43.3832 21.498 44.0912 20.718C44.7992 19.926 45.3452 18.966 45.7292 17.838C46.1132 16.698 46.3052 15.414 46.3052 13.986ZM63.3734 13.356C64.2854 13.356 65.0774 13.242 65.7494 13.014C66.4334 12.786 66.9914 12.474 67.4234 12.078C67.8674 11.67 68.1974 11.19 68.4134 10.638C68.6294 10.086 68.7374 9.48 68.7374 8.82C68.7374 7.5 68.2994 6.486 67.4234 5.778C66.5594 5.07 65.2334 4.716 63.4454 4.716H60.3494V13.356H63.3734ZM75.8294 27H71.4554C70.6274 27 70.0274 26.676 69.6554 26.028L64.1834 17.694C63.9794 17.382 63.7514 17.16 63.4994 17.028C63.2594 16.896 62.8994 16.83 62.4194 16.83H60.3494V27H55.5074V0.971998H63.4454C65.2094 0.971998 66.7214 1.158 67.9814 1.53C69.2534 1.89 70.2914 2.4 71.0954 3.06C71.9114 3.72 72.5114 4.512 72.8954 5.436C73.2794 6.348 73.4714 7.356 73.4714 8.46C73.4714 9.336 73.3394 10.164 73.0754 10.944C72.8234 11.724 72.4514 12.432 71.9594 13.068C71.4794 13.704 70.8794 14.262 70.1594 14.742C69.4514 15.222 68.6414 15.6 67.7294 15.876C68.0414 16.056 68.3294 16.272 68.5934 16.524C68.8574 16.764 69.0974 17.052 69.3134 17.388L75.8294 27ZM83.5002 27H78.6402V0.971998H83.5002V27ZM111.27 0.971998V27H108.786C108.402 27 108.078 26.94 107.814 26.82C107.562 26.688 107.316 26.472 107.076 26.172L93.4857 8.82C93.5577 9.612 93.5937 10.344 93.5937 11.016V27H89.3277V0.971998H91.8657C92.0697 0.971998 92.2437 0.983998 92.3877 1.008C92.5437 1.02 92.6757 1.056 92.7837 1.116C92.9037 1.164 93.0177 1.242 93.1257 1.35C93.2337 1.446 93.3537 1.578 93.4857 1.746L107.13 19.17C107.094 18.75 107.064 18.336 107.04 17.928C107.016 17.52 107.004 17.142 107.004 16.794V0.971998H111.27ZM130.926 5.706C130.782 5.958 130.626 6.144 130.458 6.264C130.302 6.372 130.104 6.426 129.864 6.426C129.612 6.426 129.336 6.336 129.036 6.156C128.748 5.964 128.4 5.754 127.992 5.526C127.584 5.298 127.104 5.094 126.552 4.914C126.012 4.722 125.37 4.626 124.626 4.626C123.954 4.626 123.366 4.71 122.862 4.878C122.358 5.034 121.932 5.256 121.584 5.544C121.248 5.832 120.996 6.18 120.828 6.588C120.66 6.984 120.576 7.422 120.576 7.902C120.576 8.514 120.744 9.024 121.08 9.432C121.428 9.84 121.884 10.188 122.448 10.476C123.012 10.764 123.654 11.022 124.374 11.25C125.094 11.478 125.832 11.724 126.588 11.988C127.344 12.24 128.082 12.54 128.802 12.888C129.522 13.224 130.164 13.656 130.728 14.184C131.292 14.7 131.742 15.336 132.078 16.092C132.426 16.848 132.6 17.766 132.6 18.846C132.6 20.022 132.396 21.126 131.988 22.158C131.592 23.178 131.004 24.072 130.224 24.84C129.456 25.596 128.514 26.196 127.398 26.64C126.282 27.072 125.004 27.288 123.564 27.288C122.736 27.288 121.92 27.204 121.116 27.036C120.312 26.88 119.538 26.652 118.794 26.352C118.062 26.052 117.372 25.692 116.724 25.272C116.076 24.852 115.5 24.384 114.996 23.868L116.418 21.546C116.538 21.378 116.694 21.24 116.886 21.132C117.078 21.012 117.282 20.952 117.498 20.952C117.798 20.952 118.122 21.078 118.47 21.33C118.818 21.57 119.232 21.84 119.712 22.14C120.192 22.44 120.75 22.716 121.386 22.968C122.034 23.208 122.808 23.328 123.708 23.328C125.088 23.328 126.156 23.004 126.912 22.356C127.668 21.696 128.046 20.754 128.046 19.53C128.046 18.846 127.872 18.288 127.524 17.856C127.188 17.424 126.738 17.064 126.174 16.776C125.61 16.476 124.968 16.224 124.248 16.02C123.528 15.816 122.796 15.594 122.052 15.354C121.308 15.114 120.576 14.826 119.856 14.49C119.136 14.154 118.494 13.716 117.93 13.176C117.366 12.636 116.91 11.964 116.562 11.16C116.226 10.344 116.058 9.342 116.058 8.154C116.058 7.206 116.244 6.282 116.616 5.382C117 4.482 117.552 3.684 118.272 2.988C118.992 2.292 119.88 1.734 120.936 1.314C121.992 0.894 123.204 0.684 124.572 0.684C126.108 0.684 127.524 0.924 128.82 1.404C130.116 1.884 131.22 2.556 132.132 3.42L130.926 5.706ZM141.684 4.824V12.042H150.792V15.768H141.684V23.13H153.24V27H136.824V0.971998H153.24V4.824H141.684Z" fill="#FE6F27"/>
</svg>
